HIERARCHY
ROOT newVegas:Hips
{
	OFFSET 0.000000 96.479958 0.000000
	CHANNELS 6 Xposition Yposition Zposition Xrotation Yrotation Zrotation
	JOINT newVegas:Pelvis
	{
		OFFSET 0.000000 0.000000 0.000000
		CHANNELS 3 Xrotation Yrotation Zrotation
		JOINT newVegas:LeftUpLeg
		{
			OFFSET 18.735201 -5.666702 -4.541200
			CHANNELS 3 Xrotation Yrotation Zrotation
			JOINT newVegas:LeftLeg
			{
				OFFSET -0.021200 -31.938179 0.493100
				CHANNELS 3 Xrotation Yrotation Zrotation
				JOINT newVegas:LeftFoot
				{
					OFFSET 0.021200 -31.938179 -4.336299
					CHANNELS 3 Xrotation Yrotation Zrotation
					JOINT newVegas:LeftToeBase
					{
						OFFSET 0.943001 -26.722000 15.023500
						CHANNELS 3 Xrotation Yrotation Zrotation
						End Site
						{
							OFFSET 0.000000 30.670183 0.000000
						}
					}
				}
				JOINT newVegas:Left_PantLeg
				{
					OFFSET 0.663870 -9.044666 -1.108900
					CHANNELS 3 Xrotation Yrotation Zrotation
					End Site
					{
						OFFSET 1.415995 20.635357 0.000000
					}
				}
			}
		}
		JOINT newVegas:RightUpLeg
		{
			OFFSET -18.735201 -5.666702 -4.541200
			CHANNELS 3 Xrotation Yrotation Zrotation
			JOINT newVegas:RightLeg
			{
				OFFSET 0.018946 -31.938133 0.493100
				CHANNELS 3 Xrotation Yrotation Zrotation
				JOINT newVegas:RightFoot
				{
					OFFSET -0.018946 -31.938126 -4.336299
					CHANNELS 3 Xrotation Yrotation Zrotation
					JOINT newVegas:RightToeBase
					{
						OFFSET -0.943001 -26.722004 15.023500
						CHANNELS 3 Xrotation Yrotation Zrotation
						End Site
						{
							OFFSET 0.000000 30.670187 0.000000
						}
					}
				}
				JOINT newVegas:Right_PantLeg
				{
					OFFSET -0.661674 -9.044716 -1.108900
					CHANNELS 3 Xrotation Yrotation Zrotation
					End Site
					{
						OFFSET -1.415958 20.635269 0.000000
					}
				}
			}
		}
	}
	JOINT newVegas:Spine
	{
		OFFSET 0.000000 10.199997 -0.299500
		CHANNELS 3 Xrotation Yrotation Zrotation
		JOINT newVegas:Spine1
		{
			OFFSET 0.000000 11.900002 -1.516600
			CHANNELS 3 Xrotation Yrotation Zrotation
			JOINT newVegas:Spine2
			{
				OFFSET 0.000000 13.600006 -2.842500
				CHANNELS 3 Xrotation Yrotation Zrotation
				JOINT newVegas:Neck
				{
					OFFSET 0.000000 9.624100 -2.890100
					CHANNELS 3 Xrotation Yrotation Zrotation
					JOINT newVegas:Head
					{
						OFFSET 0.000000 14.068802 -1.351900
						CHANNELS 3 Xrotation Yrotation Zrotation
						JOINT newVegas:Hair_Back
						{
							OFFSET 0.000000 3.231903 -17.524799
							CHANNELS 3 Xrotation Yrotation Zrotation
							End Site
							{
								OFFSET 0.000000 19.849884 0.000000
							}
						}
						JOINT newVegas:Hair_Front
						{
							OFFSET 0.000000 31.260406 4.573800
							CHANNELS 3 Xrotation Yrotation Zrotation
							JOINT newVegas:Hair_Front1
							{
								OFFSET 0.000000 2.284103 11.993300
								CHANNELS 3 Xrotation Yrotation Zrotation
								JOINT newVegas:Hair_Front2
								{
									OFFSET 0.000000 2.284103 11.993300
									CHANNELS 3 Xrotation Yrotation Zrotation
									End Site
									{
										OFFSET 0.000000 12.208862 0.000000
									}
								}
							}
						}
						JOINT newVegas:Jowel
						{
							OFFSET 0.000000 -7.458206 6.864100
							CHANNELS 3 Xrotation Yrotation Zrotation
							End Site
							{
								OFFSET 0.000000 19.849884 0.000000
							}
						}
					}
				}
				JOINT newVegas:LeftShoulder
				{
					OFFSET 15.263000 10.923401 -0.547700
					CHANNELS 3 Xrotation Yrotation Zrotation
					JOINT newVegas:LeftArm
					{
						OFFSET 25.438599 -2.830597 -13.032500
						CHANNELS 3 Xrotation Yrotation Zrotation
						JOINT newVegas:LeftForeArm
						{
							OFFSET 29.960503 0.000000 0.000000
							CHANNELS 3 Xrotation Yrotation Zrotation
							JOINT newVegas:LeftHand
							{
								OFFSET 27.849251 0.000000 0.000000
								CHANNELS 3 Xrotation Yrotation Zrotation
								JOINT newVegas:LeftHandThumb1
								{
									OFFSET 4.487587 -3.305161 6.305391
									CHANNELS 3 Xrotation Yrotation Zrotation
									JOINT newVegas:LeftHandThumb2
									{
										OFFSET 5.480453 -3.164139 3.164143
										CHANNELS 3 Xrotation Yrotation Zrotation
										JOINT newVegas:LeftHandThumb3
										{
											OFFSET 5.159721 -2.978973 2.978967
											CHANNELS 3 Xrotation Yrotation Zrotation
											End Site
											{
												OFFSET 2.494507 5.926697 1.738678
											}
										}
									}
								}
								JOINT newVegas:LeftHandIndex1
								{
									OFFSET 18.578728 -0.527832 5.208049
									CHANNELS 3 Xrotation Yrotation Zrotation
									JOINT newVegas:LeftHandIndex2
									{
										OFFSET 3.192009 0.000000 0.000000
										CHANNELS 3 Xrotation Yrotation Zrotation
										JOINT newVegas:LeftHandIndex3
										{
											OFFSET 3.835129 0.000000 0.000000
											CHANNELS 3 Xrotation Yrotation Zrotation
											End Site
											{
												OFFSET -0.034599 3.816971 0.371180
											}
										}
									}
								}
								JOINT newVegas:LeftHandMiddle1
								{
									OFFSET 18.476105 0.000000 0.000000
									CHANNELS 3 Xrotation Yrotation Zrotation
									JOINT newVegas:LeftHandMiddle2
									{
										OFFSET 3.324875 0.000000 0.000000
										CHANNELS 3 Xrotation Yrotation Zrotation
										JOINT newVegas:LeftHandMiddle3
										{
											OFFSET 4.596550 0.000000 0.000000
											CHANNELS 3 Xrotation Yrotation Zrotation
											End Site
											{
												OFFSET 0.057701 4.578827 0.399218
											}
										}
									}
								}
								JOINT newVegas:LeftHandRing1
								{
									OFFSET 17.732719 0.121887 -4.201567
									CHANNELS 3 Xrotation Yrotation Zrotation
									JOINT newVegas:LeftHandRing2
									{
										OFFSET 2.733170 0.000000 0.000000
										CHANNELS 3 Xrotation Yrotation Zrotation
										JOINT newVegas:LeftHandRing3
										{
											OFFSET 3.178268 0.000000 0.000000
											CHANNELS 3 Xrotation Yrotation Zrotation
											End Site
											{
												OFFSET 0.119102 3.170624 0.185394
											}
										}
									}
								}
								JOINT newVegas:LeftHandPinky1
								{
									OFFSET 15.989624 -0.606689 -7.535461
									CHANNELS 3 Xrotation Yrotation Zrotation
									JOINT newVegas:LeftHandPinky2
									{
										OFFSET 2.538986 0.000000 0.000000
										CHANNELS 3 Xrotation Yrotation Zrotation
										JOINT newVegas:LeftHandPinky3
										{
											OFFSET 2.593102 0.000000 0.000000
											CHANNELS 3 Xrotation Yrotation Zrotation
											End Site
											{
												OFFSET -0.150902 2.584198 0.152708
											}
										}
									}
								}
							}
							JOINT newVegas:Left_Sleeve
							{
								OFFSET 0.267448 -0.649796 0.577675
								CHANNELS 3 Xrotation Yrotation Zrotation
								End Site
								{
									OFFSET 0.000000 15.991241 0.000000
								}
							}
							JOINT newVegas:Left_CapeC
							{
								OFFSET 15.715958 -8.608795 -6.935905
								CHANNELS 3 Xrotation Yrotation Zrotation
								JOINT newVegas:Left_CapeC1
								{
									OFFSET 0.000000 -8.688499 0.000000
									CHANNELS 3 Xrotation Yrotation Zrotation
									End Site
									{
										OFFSET 0.000000 8.688499 0.000000
									}
								}
							}
						}
						JOINT newVegas:Left_CapeB
						{
							OFFSET 26.118385 -8.608795 -7.079235
							CHANNELS 3 Xrotation Yrotation Zrotation
							JOINT newVegas:Left_CapeB1
							{
								OFFSET 0.000000 -8.688499 0.000000
								CHANNELS 3 Xrotation Yrotation Zrotation
								End Site
								{
									OFFSET 0.000000 8.688499 0.000000
								}
							}
						}
						JOINT newVegas:Left_CapeA
						{
							OFFSET 5.115639 -8.608795 -10.395809
							CHANNELS 3 Xrotation Yrotation Zrotation
							JOINT newVegas:Left_CapeA1
							{
								OFFSET 0.000000 -8.688499 0.000000
								CHANNELS 3 Xrotation Yrotation Zrotation
								End Site
								{
									OFFSET 0.000000 8.688499 0.000000
								}
							}
						}
					}
				}
				JOINT newVegas:RightShoulder
				{
					OFFSET -15.263000 10.923401 -0.547700
					CHANNELS 3 Xrotation Yrotation Zrotation
					JOINT newVegas:RightArm
					{
						OFFSET -25.438599 -2.830597 -13.032500
						CHANNELS 3 Xrotation Yrotation Zrotation
						JOINT newVegas:RightForeArm
						{
							OFFSET -29.960503 0.000000 0.000000
							CHANNELS 3 Xrotation Yrotation Zrotation
							JOINT newVegas:RightHand
							{
								OFFSET -27.849251 0.000000 0.000000
								CHANNELS 3 Xrotation Yrotation Zrotation
								JOINT newVegas:RightHandThumb1
								{
									OFFSET -4.487587 -3.305161 6.305391
									CHANNELS 3 Xrotation Yrotation Zrotation
									JOINT newVegas:RightHandThumb2
									{
										OFFSET -5.480453 -3.164139 3.164143
										CHANNELS 3 Xrotation Yrotation Zrotation
										JOINT newVegas:RightHandThumb3
										{
											OFFSET -5.159721 -2.978973 2.978967
											CHANNELS 3 Xrotation Yrotation Zrotation
											End Site
											{
												OFFSET -2.494507 5.926697 1.738678
											}
										}
									}
								}
								JOINT newVegas:RightHandIndex1
								{
									OFFSET -18.578728 -0.527832 5.208049
									CHANNELS 3 Xrotation Yrotation Zrotation
									JOINT newVegas:RightHandIndex2
									{
										OFFSET -3.192009 0.000000 0.000000
										CHANNELS 3 Xrotation Yrotation Zrotation
										JOINT newVegas:RightHandIndex3
										{
											OFFSET -3.835129 0.000000 0.000000
											CHANNELS 3 Xrotation Yrotation Zrotation
											End Site
											{
												OFFSET 0.034599 3.816971 0.371180
											}
										}
									}
								}
								JOINT newVegas:RightHandMiddle1
								{
									OFFSET -18.476105 0.000000 0.000000
									CHANNELS 3 Xrotation Yrotation Zrotation
									JOINT newVegas:RightHandMiddle2
									{
										OFFSET -3.324875 0.000000 0.000000
										CHANNELS 3 Xrotation Yrotation Zrotation
										JOINT newVegas:RightHandMiddle3
										{
											OFFSET -4.596550 0.000000 0.000000
											CHANNELS 3 Xrotation Yrotation Zrotation
											End Site
											{
												OFFSET -0.057701 4.578827 0.399218
											}
										}
									}
								}
								JOINT newVegas:RightHandRing1
								{
									OFFSET -17.732719 0.121887 -4.201567
									CHANNELS 3 Xrotation Yrotation Zrotation
									JOINT newVegas:RightHandRing2
									{
										OFFSET -2.733170 0.000000 0.000000
										CHANNELS 3 Xrotation Yrotation Zrotation
										JOINT newVegas:RightHandRing3
										{
											OFFSET -3.178268 0.000000 0.000000
											CHANNELS 3 Xrotation Yrotation Zrotation
											End Site
											{
												OFFSET -0.119102 3.170624 0.185394
											}
										}
									}
								}
								JOINT newVegas:RightHandPinky1
								{
									OFFSET -15.989624 -0.606689 -7.535461
									CHANNELS 3 Xrotation Yrotation Zrotation
									JOINT newVegas:RightHandPinky2
									{
										OFFSET -2.538986 0.000000 0.000000
										CHANNELS 3 Xrotation Yrotation Zrotation
										JOINT newVegas:RightHandPinky3
										{
											OFFSET -2.593102 0.000000 0.000000
											CHANNELS 3 Xrotation Yrotation Zrotation
											End Site
											{
												OFFSET 0.150902 2.584198 0.152708
											}
										}
									}
								}
							}
							JOINT newVegas:Right_CapeC
							{
								OFFSET -15.715958 -8.608795 -6.935905
								CHANNELS 3 Xrotation Yrotation Zrotation
								JOINT newVegas:Right_CapeC1
								{
									OFFSET 0.000000 -8.688499 0.000000
									CHANNELS 3 Xrotation Yrotation Zrotation
									End Site
									{
										OFFSET 0.000000 8.688499 0.000000
									}
								}
							}
							JOINT newVegas:Right_Sleeve
							{
								OFFSET -0.267448 -0.649994 0.577675
								CHANNELS 3 Xrotation Yrotation Zrotation
								End Site
								{
									OFFSET 0.000000 15.991302 0.000000
								}
							}
						}
						JOINT newVegas:Right_CapeA
						{
							OFFSET -5.115540 -8.608795 -10.395824
							CHANNELS 3 Xrotation Yrotation Zrotation
							JOINT newVegas:Right_CapeA1
							{
								OFFSET 0.000000 -8.688499 0.000000
								CHANNELS 3 Xrotation Yrotation Zrotation
								End Site
								{
									OFFSET 0.000000 8.688499 0.000000
								}
							}
						}
						JOINT newVegas:Right_CapeB
						{
							OFFSET -26.118187 -8.608795 -7.079266
							CHANNELS 3 Xrotation Yrotation Zrotation
							JOINT newVegas:Right_CapeB1
							{
								OFFSET 0.000000 -8.688499 0.000000
								CHANNELS 3 Xrotation Yrotation Zrotation
								End Site
								{
									OFFSET 0.000000 8.688499 0.000000
								}
							}
						}
					}
				}
				JOINT newVegas:Left_Collar
				{
					OFFSET 18.625099 8.655502 8.828100
					CHANNELS 3 Xrotation Yrotation Zrotation
					JOINT newVegas:Left_Collar1
					{
						OFFSET 14.783401 10.540405 -1.259500
						CHANNELS 3 Xrotation Yrotation Zrotation
						End Site
						{
							OFFSET 0.000000 18.199875 0.000000
						}
					}
				}
				JOINT newVegas:Collar_Back
				{
					OFFSET 0.000000 15.630707 -20.132601
					CHANNELS 3 Xrotation Yrotation Zrotation
					End Site
					{
						OFFSET 0.000000 22.523010 0.000000
					}
				}
				JOINT newVegas:Left_Peck
				{
					OFFSET 17.239599 -5.132599 25.482599
					CHANNELS 3 Xrotation Yrotation Zrotation
					End Site
					{
						OFFSET 0.000000 22.523010 0.000000
					}
				}
				JOINT newVegas:Right_Peck
				{
					OFFSET -17.239599 -5.132202 25.482599
					CHANNELS 3 Xrotation Yrotation Zrotation
					End Site
					{
						OFFSET 0.000000 22.523010 0.000000
					}
				}
				JOINT newVegas:Right_Collar
				{
					OFFSET -18.625099 8.655792 8.828100
					CHANNELS 3 Xrotation Yrotation Zrotation
					JOINT newVegas:Right_Collar1
					{
						OFFSET -14.783401 10.539993 -1.259500
						CHANNELS 3 Xrotation Yrotation Zrotation
						End Site
						{
							OFFSET 0.000000 18.199631 0.000000
						}
					}
				}
			}
		}
		JOINT newVegas:Belly
		{
			OFFSET 0.000000 -6.540398 9.014299
			CHANNELS 3 Xrotation Yrotation Zrotation
			End Site
			{
				OFFSET 0.000000 11.566666 0.000000
			}
		}
	}
	JOINT newVegas:ElvisFacialAnim_Joint
	{
		OFFSET 1.000000 -95.330101 -8.825800
		CHANNELS 3 Xrotation Yrotation Zrotation
		End Site
		{
			OFFSET 0.000000 35.315800 0.000000
		}
	}
}
MOTION
Frames: 4
Frame Time: 0.016667
0.732080 89.248192 0.257735 2.062063 -10.311444 -1.747706 0.000000 -0.000000 0.000000 -42.127869 0.941187 8.842506 36.195993 0.227531 2.962967 4.043712 0.262313 -5.808324 0.000000 -0.000000 -0.000000 0.000000 0.000000 -0.000000 -11.307761 -10.757223 -14.361767 34.997220 -9.521285 2.937571 -20.724517 -3.772224 14.762718 0.000000 0.000002 -0.000000 -0.000000 -0.000002 -0.000001 21.574529 5.650512 1.366824 2.971775 1.798109 -0.052723 2.970862 1.873018 -0.065766 -0.740316 3.043025 0.358546 -0.740306 3.043025 0.358546 0.000000 0.000000 0.000001 -0.740310 3.043025 0.358548 -0.740238 3.043024 0.358540 -0.000001 0.000000 0.000000 0.000000 0.000000 0.000001 1.350328 -32.914012 3.985053 -22.769899 -14.531419 -67.625922 -0.000006 -44.195716 -9.360777 -35.824404 -9.101364 -6.762473 -7.471930 1.860690 -7.166925 30.987008 27.310540 -4.510896 -0.000000 -0.000003 -0.000007 -4.686317 11.374158 -75.574172 -0.816397 3.074003 -46.874635 -0.000001 -0.000001 0.000002 1.616616 16.582647 -84.688806 0.018000 0.022017 -72.884867 0.000000 0.000003 -0.000000 -7.765802 20.752790 -77.737798 0.013355 0.983451 -51.003618 -0.000000 -0.000001 -0.000001 -13.924170 3.850365 -44.469818 0.013447 0.024842 -63.895156 0.000001 0.000000 -0.000001 0.000001 -0.000002 0.000000 0.000001 -0.000002 0.000000 0.000000 -0.000001 0.000001 -0.000000 -0.000001 0.000001 -0.000000 -0.000001 0.000001 -0.000000 -0.000001 0.000001 -0.000002 -0.000000 0.000001 9.555393 22.112635 -11.863557 -43.977829 10.617614 77.772994 -0.000009 50.389038 2.241450 -28.429766 16.642777 6.785461 9.347178 2.810552 -11.364520 16.169040 -43.266025 15.843560 0.000001 -0.000001 0.000001 17.076796 -0.396550 31.924349 -0.204412 -0.284213 112.811557 0.000000 -0.000002 0.000000 9.205474 -5.035868 102.738094 0.014969 -0.019180 61.018526 0.000001 0.000001 -0.000001 5.569139 -8.935206 107.329087 0.547988 -0.005780 41.263703 -0.000000 -0.000003 -0.000000 6.511256 -17.148266 98.228017 0.007402 -0.015740 43.845730 0.000000 -0.000000 0.000000 -0.000002 -0.000003 0.000001 -0.000000 -0.000001 -0.000002 -0.000002 -0.000003 -0.000001 0.000002 -0.000001 0.000000 0.000002 0.000000 -0.000000 0.000002 -0.000001 0.000000 0.000002 -0.000000 -0.000000 0.000001 -0.000000 0.000000 0.000001 -0.000000 0.000000 0.000001 -0.000000 0.000000 0.000001 -0.000000 0.000000 0.000001 -0.000000 0.000000 0.000001 -0.000000 0.000000 0.000001 -0.000000 0.000000 -0.000001 0.000000 -0.000000 0.000000 -0.000000 0.000000 
0.836368 89.246529 0.525496 2.140627 -9.922045 -1.729453 -0.000000 0.000001 0.000000 -42.217782 0.962686 8.542445 36.384513 0.012882 3.013472 3.836320 0.269509 -5.648537 0.000000 -0.000000 -0.000000 0.000000 0.000001 -0.000000 -10.743253 -10.863707 -14.385359 34.509995 -9.854106 2.942032 -20.711043 -3.858131 15.047450 0.000000 -0.000001 0.000000 0.000001 -0.000000 -0.000001 21.530209 5.642777 1.114828 2.951614 1.865108 -0.160994 2.950959 1.939448 -0.175155 -0.763036 3.030613 0.383893 -0.762841 3.030614 0.383896 -0.000001 -0.000000 -0.000000 -0.762873 3.030607 0.383889 -0.763092 3.030646 0.383894 -0.000001 0.000000 0.000000 -0.000001 -0.000000 -0.000000 1.306150 -33.191294 4.056576 -22.439080 -14.543423 -67.584783 0.000012 -44.463702 -8.793769 -35.436644 -8.587739 -7.126252 -7.471926 1.860685 -7.166929 30.987004 27.310546 -4.510889 0.000002 0.000001 -0.000003 -4.686381 11.374045 -75.571173 -0.816397 3.074002 -46.874642 0.000000 -0.000001 -0.000002 1.616623 16.582644 -84.688827 0.018000 0.022029 -72.884867 0.000000 0.000003 0.000001 -7.759307 20.770679 -77.712731 0.013344 0.983452 -51.003618 -0.000000 -0.000001 0.000001 -14.013697 3.966988 -44.412622 0.013505 0.024875 -64.018946 0.000001 -0.000002 -0.000001 0.000001 -0.000003 0.000001 0.000001 -0.000003 0.000001 0.000000 -0.000003 0.000001 -0.000001 0.000001 0.000001 -0.000000 0.000000 0.000001 -0.000001 0.000001 0.000001 -0.000002 0.000001 0.000001 9.474266 21.562345 -11.639587 -44.239064 10.875446 78.236805 0.000041 50.076423 2.035026 -28.523160 16.871185 6.756814 9.347172 2.810550 -11.364515 16.169032 -43.266031 15.843553 0.000001 -0.000001 0.000001 17.076795 -0.396552 31.924349 -0.204412 -0.284211 112.811550 0.000000 -0.000001 -0.000000 9.205469 -5.035870 102.738094 0.014969 -0.019183 61.018526 0.000001 -0.000001 -0.000000 5.569137 -8.935209 107.329087 0.547993 -0.005780 41.263700 0.000000 0.000004 -0.000001 6.511251 -17.148266 98.228004 0.007401 -0.015740 43.845730 0.000000 -0.000000 -0.000000 -0.000000 0.000000 0.000002 -0.000001 -0.000000 0.000005 -0.000000 -0.000000 0.000002 0.000003 0.000002 -0.000000 0.000003 0.000003 -0.000001 0.000003 0.000002 -0.000000 0.000003 0.000003 -0.000001 -0.000001 -0.000000 -0.000000 -0.000001 -0.000000 -0.000000 -0.000001 -0.000000 -0.000000 -0.000001 -0.000000 -0.000000 -0.000001 -0.000000 -0.000000 -0.000001 -0.000000 -0.000000 -0.000001 -0.000000 -0.000000 -0.000000 -0.000000 -0.000000 -0.000000 0.000001 0.000000 
0.933179 89.241135 0.791732 2.219742 -9.557367 -1.696261 0.000000 -0.000000 -0.000000 -42.293983 0.970873 8.253173 36.574133 -0.169194 3.039001 3.621374 0.276143 -5.493466 0.000000 0.000000 -0.000000 -0.000000 0.000001 -0.000000 -10.219042 -10.994061 -14.419585 34.054456 -10.140214 2.917608 -20.710863 -3.944055 15.325981 -0.000000 0.000000 0.000000 0.000002 0.000000 0.000000 21.481712 5.616067 0.856791 2.933342 1.930218 -0.273806 2.932958 2.004093 -0.288579 -0.788116 3.015418 0.413127 -0.788083 3.015418 0.413131 0.000001 -0.000000 0.000000 -0.788105 3.015403 0.413128 -0.788161 3.015463 0.413122 -0.000000 -0.000000 -0.000000 0.000001 -0.000000 0.000000 1.253887 -33.456814 4.134830 -22.076227 -14.578451 -67.548146 0.000023 -44.717030 -8.228632 -35.111571 -8.142446 -7.495878 -7.471930 1.860687 -7.166928 30.987004 27.310539 -4.510898 -0.000001 -0.000001 -0.000004 -4.686466 11.373940 -75.568093 -0.816400 3.074000 -46.874642 0.000000 0.000002 -0.000002 1.616622 16.582647 -84.688806 0.018006 0.022030 -72.884867 0.000000 -0.000000 -0.000000 -7.752830 20.788951 -77.688149 0.013352 0.983434 -51.003625 0.000000 -0.000002 -0.000002 -14.104044 4.086268 -44.357615 0.013548 0.024895 -64.143543 -0.000002 0.000000 -0.000001 0.000001 -0.000003 0.000000 0.000001 -0.000003 0.000000 0.000000 -0.000002 0.000001 -0.000002 -0.000001 -0.000000 -0.000002 -0.000001 0.000000 -0.000002 -0.000001 -0.000000 -0.000004 -0.000001 -0.000000 9.408118 21.067911 -11.442653 -44.479858 11.089958 78.693382 -0.000003 49.791007 1.848528 -28.571597 17.092982 6.703808 9.347177 2.810552 -11.364526 16.169027 -43.266031 15.843551 0.000001 -0.000003 0.000003 17.076796 -0.396550 31.924349 -0.204412 -0.284212 112.811550 -0.000000 0.000001 0.000000 9.205472 -5.035870 102.738094 0.014973 -0.019184 61.018519 -0.000001 0.000000 0.000001 5.569141 -8.935206 107.329087 0.547992 -0.005782 41.263700 -0.000000 -0.000006 -0.000000 6.511256 -17.148264 98.228010 0.007401 -0.015730 43.845730 0.000000 -0.000000 -0.000000 -0.000000 -0.000003 0.000000 0.000000 -0.000003 -0.000001 -0.000000 -0.000004 -0.000003 0.000002 0.000000 0.000001 0.000002 0.000001 0.000000 0.000002 0.000000 0.000001 0.000002 0.000001 0.000000 -0.000000 -0.000000 -0.000000 -0.000000 -0.000000 -0.000000 -0.000000 -0.000000 -0.000000 -0.000000 -0.000000 -0.000000 -0.000000 -0.000000 -0.000000 -0.000000 -0.000000 -0.000000 -0.000000 -0.000000 -0.000000 0.000000 -0.000000 -0.000000 0.000000 -0.000000 -0.000000 
1.023014 89.231468 1.055387 2.299405 -9.215867 -1.651473 0.000000 0.000000 0.000000 -42.369566 1.021732 7.973047 36.769176 -0.365190 3.080786 3.398458 0.281753 -5.345317 0.000000 0.000000 -0.000000 -0.000000 -0.000000 -0.000000 -9.712378 -11.062285 -14.458160 33.639587 -10.454533 2.916099 -20.722895 -4.029975 15.598699 0.000000 0.000002 0.000000 0.000003 -0.000001 0.000000 21.429056 5.584894 0.598709 2.917126 1.985257 -0.390848 2.916586 2.058882 -0.406592 -0.814507 2.994744 0.445304 -0.814533 2.994742 0.445302 0.000001 -0.000000 -0.000000 -0.814430 2.994739 0.445303 -0.814583 2.994756 0.445304 -0.000002 -0.000000 -0.000000 0.000001 -0.000000 -0.000000 1.216770 -33.714487 4.232021 -21.704815 -14.643560 -67.511420 0.000019 -44.942525 -7.663739 -34.862891 -7.769638 -7.870579 -7.471926 1.860686 -7.166929 30.987004 27.310544 -4.510898 -0.000000 -0.000003 -0.000001 -4.686544 11.373818 -75.565019 -0.816402 3.074002 -46.874642 -0.000001 -0.000001 -0.000001 1.616625 16.582644 -84.688841 0.018003 0.022018 -72.884880 -0.000001 0.000002 0.000000 -7.746345 20.807528 -77.664080 0.013344 0.983441 -51.003604 0.000000 -0.000001 -0.000000 -14.195096 4.208194 -44.304808 0.013614 0.024923 -64.268918 0.000001 -0.000001 -0.000003 -0.000003 -0.000001 0.000001 -0.000003 -0.000001 0.000001 -0.000004 -0.000001 0.000001 -0.000002 0.000001 -0.000001 -0.000001 0.000000 -0.000000 -0.000002 0.000001 -0.000001 -0.000003 0.000001 -0.000001 9.352114 20.644018 -11.270548 -44.692141 11.251934 79.128500 0.000001 49.534192 1.683203 -28.576052 17.304001 6.626667 9.347178 2.810554 -11.364525 16.169032 -43.266025 15.843551 -0.000000 0.000000 -0.000000 17.076798 -0.396548 31.924349 -0.204413 -0.284213 112.811550 0.000001 0.000002 -0.000001 9.205472 -5.035869 102.738094 0.014969 -0.019182 61.018526 0.000001 0.000002 0.000000 5.569143 -8.935205 107.329080 0.547990 -0.005781 41.263700 -0.000000 0.000001 -0.000000 6.511259 -17.148266 98.228010 0.007400 -0.015737 43.845730 0.000000 -0.000000 -0.000000 -0.000001 0.000001 -0.000006 0.000001 -0.000000 -0.000002 -0.000001 0.000001 -0.000008 -0.000002 0.000000 0.000000 -0.000002 0.000001 -0.000000 -0.000002 0.000000 0.000000 -0.000002 0.000001 -0.000000 -0.000003 0.000000 0.000000 -0.000003 0.000000 0.000000 -0.000003 0.000000 0.000000 -0.000003 0.000000 0.000000 -0.000003 0.000000 0.000000 -0.000003 0.000000 0.000000 -0.000003 0.000000 0.000000 -0.000001 0.000000 -0.000000 0.000000 0.000000 0.000000 
